<mxfile host="app.diagrams.net" agent="Mozilla/5.0 (Windows NT 10.0; Win64; x64) AppleWebKit/537.36 (KHTML, like Gecko) Chrome/140.0.0.0 Safari/537.36 Edg/140.0.0.0" version="28.2.5">
  <diagram name="PÃ¡gina-1" id="C9qCd4Yd24az-Pif51Of">
    <mxGraphModel dx="983" dy="1066" grid="1" gridSize="10" guides="1" tooltips="1" connect="1" arrows="1" fold="1" page="1" pageScale="1" pageWidth="827" pageHeight="1169" math="0" shadow="0">
      <root>
        <mxCell id="0" />
        <mxCell id="1" parent="0" />
        <mxCell id="7_lOte273rxT4vuSb5Ie-1" value="Familia" style="rounded=0;whiteSpace=wrap;html=1;labelBackgroundColor=none;fillColor=light-dark(#E1D5E7,#FFFFFF);strokeColor=#9673a6;fontColor=light-dark(#000000,#000000);" parent="1" vertex="1">
          <mxGeometry x="410" y="68" width="120" height="60" as="geometry" />
        </mxCell>
        <mxCell id="7_lOte273rxT4vuSb5Ie-2" value="Medicamentos" style="rounded=0;whiteSpace=wrap;html=1;labelBackgroundColor=none;fontColor=light-dark(#000000,#000000);fillColor=light-dark(#FFFFFF,#FFFFFF);strokeColor=light-dark(#000000,#000000);" parent="1" vertex="1">
          <mxGeometry x="560" y="160" width="120" height="60" as="geometry" />
        </mxCell>
        <mxCell id="7_lOte273rxT4vuSb5Ie-3" value="Laboratorio" style="rounded=0;whiteSpace=wrap;html=1;labelBackgroundColor=none;fontColor=light-dark(#000000,#000000);fillColor=light-dark(#FFFFFF,#FFFFFF);strokeColor=light-dark(#000000,#000000);" parent="1" vertex="1">
          <mxGeometry x="290" y="250" width="120" height="60" as="geometry" />
        </mxCell>
        <mxCell id="7_lOte273rxT4vuSb5Ie-4" value="" style="endArrow=none;html=1;rounded=0;exitX=0.5;exitY=0;exitDx=0;exitDy=0;entryX=0.25;entryY=1;entryDx=0;entryDy=0;labelBackgroundColor=none;fontColor=light-dark(#000000,#000000);" parent="1" source="7_lOte273rxT4vuSb5Ie-5" target="7_lOte273rxT4vuSb5Ie-2" edge="1">
          <mxGeometry width="50" height="50" relative="1" as="geometry">
            <mxPoint x="620" y="280" as="sourcePoint" />
            <mxPoint x="660" y="280" as="targetPoint" />
          </mxGeometry>
        </mxCell>
        <mxCell id="7_lOte273rxT4vuSb5Ie-5" value="Nombre" style="ellipse;whiteSpace=wrap;html=1;aspect=fixed;labelBackgroundColor=none;fontColor=light-dark(#000000,#000000);fillColor=light-dark(#FFFFFF,#FFFFFF);strokeColor=light-dark(#000000,#000000);" parent="1" vertex="1">
          <mxGeometry x="540" y="270" width="50" height="50" as="geometry" />
        </mxCell>
        <mxCell id="7_lOte273rxT4vuSb5Ie-7" value="" style="endArrow=none;html=1;rounded=0;exitX=0.5;exitY=0;exitDx=0;exitDy=0;entryX=0.5;entryY=1;entryDx=0;entryDy=0;labelBackgroundColor=none;fontColor=light-dark(#000000,#000000);" parent="1" source="7_lOte273rxT4vuSb5Ie-8" target="7_lOte273rxT4vuSb5Ie-2" edge="1">
          <mxGeometry width="50" height="50" relative="1" as="geometry">
            <mxPoint x="730" y="370" as="sourcePoint" />
            <mxPoint x="730" y="310" as="targetPoint" />
          </mxGeometry>
        </mxCell>
        <mxCell id="7_lOte273rxT4vuSb5Ie-8" value="Tipo" style="ellipse;whiteSpace=wrap;html=1;aspect=fixed;labelBackgroundColor=none;fontColor=light-dark(#000000,#000000);fillColor=light-dark(#FFFFFF,#FFFFFF);strokeColor=light-dark(#000000,#000000);" parent="1" vertex="1">
          <mxGeometry x="600" y="270" width="50" height="50" as="geometry" />
        </mxCell>
        <mxCell id="7_lOte273rxT4vuSb5Ie-9" value="" style="endArrow=none;html=1;rounded=0;exitX=1;exitY=0;exitDx=0;exitDy=0;entryX=0;entryY=1;entryDx=0;entryDy=0;labelBackgroundColor=none;fontColor=light-dark(#000000,#000000);" parent="1" source="7_lOte273rxT4vuSb5Ie-10" target="7_lOte273rxT4vuSb5Ie-2" edge="1">
          <mxGeometry width="50" height="50" relative="1" as="geometry">
            <mxPoint x="560" y="430" as="sourcePoint" />
            <mxPoint x="570" y="250" as="targetPoint" />
          </mxGeometry>
        </mxCell>
        <mxCell id="7_lOte273rxT4vuSb5Ie-10" value="ID" style="ellipse;whiteSpace=wrap;html=1;aspect=fixed;labelBackgroundColor=none;fontColor=light-dark(#000000,#000000);fillColor=light-dark(#FFFFFF,#7B7B7B);strokeColor=light-dark(#000000,#000000);" parent="1" vertex="1">
          <mxGeometry x="480" y="270" width="50" height="50" as="geometry" />
        </mxCell>
        <mxCell id="7_lOte273rxT4vuSb5Ie-11" value="" style="endArrow=none;html=1;rounded=0;exitX=0;exitY=1;exitDx=0;exitDy=0;entryX=1;entryY=0.5;entryDx=0;entryDy=0;labelBackgroundColor=none;fontColor=light-dark(#000000,#000000);" parent="1" source="7_lOte273rxT4vuSb5Ie-12" target="7_lOte273rxT4vuSb5Ie-2" edge="1">
          <mxGeometry width="50" height="50" relative="1" as="geometry">
            <mxPoint x="790" y="410" as="sourcePoint" />
            <mxPoint x="790" y="350" as="targetPoint" />
          </mxGeometry>
        </mxCell>
        <mxCell id="7_lOte273rxT4vuSb5Ie-12" value="Requ.&lt;div&gt;receta&lt;/div&gt;" style="ellipse;whiteSpace=wrap;html=1;aspect=fixed;labelBackgroundColor=none;fontColor=light-dark(#000000,#000000);fillColor=light-dark(#FFFFFF,#FFFFFF);strokeColor=light-dark(#000000,#000000);" parent="1" vertex="1">
          <mxGeometry x="710" y="119.5" width="47" height="47" as="geometry" />
        </mxCell>
        <mxCell id="7_lOte273rxT4vuSb5Ie-13" value="" style="endArrow=none;html=1;rounded=0;exitX=0;exitY=0.5;exitDx=0;exitDy=0;entryX=1;entryY=0.75;entryDx=0;entryDy=0;labelBackgroundColor=none;fontColor=light-dark(#000000,#000000);" parent="1" source="7_lOte273rxT4vuSb5Ie-14" target="7_lOte273rxT4vuSb5Ie-2" edge="1">
          <mxGeometry width="50" height="50" relative="1" as="geometry">
            <mxPoint x="790" y="410" as="sourcePoint" />
            <mxPoint x="730" y="350" as="targetPoint" />
          </mxGeometry>
        </mxCell>
        <mxCell id="7_lOte273rxT4vuSb5Ie-14" value="Precio&lt;div&gt;unitario&lt;/div&gt;" style="ellipse;whiteSpace=wrap;html=1;aspect=fixed;labelBackgroundColor=none;fontColor=light-dark(#000000,#000000);fillColor=light-dark(#FFFFFF,#FFFFFF);strokeColor=light-dark(#000000,#000000);" parent="1" vertex="1">
          <mxGeometry x="715" y="180" width="50" height="50" as="geometry" />
        </mxCell>
        <mxCell id="7_lOte273rxT4vuSb5Ie-15" value="" style="endArrow=none;html=1;rounded=0;exitX=0.5;exitY=0;exitDx=0;exitDy=0;entryX=0.75;entryY=1;entryDx=0;entryDy=0;labelBackgroundColor=none;fontColor=light-dark(#000000,#000000);" parent="1" source="7_lOte273rxT4vuSb5Ie-16" target="7_lOte273rxT4vuSb5Ie-2" edge="1">
          <mxGeometry width="50" height="50" relative="1" as="geometry">
            <mxPoint x="640" y="450" as="sourcePoint" />
            <mxPoint x="640" y="390" as="targetPoint" />
          </mxGeometry>
        </mxCell>
        <mxCell id="7_lOte273rxT4vuSb5Ie-16" value="Ud. stock" style="ellipse;whiteSpace=wrap;html=1;aspect=fixed;labelBackgroundColor=none;fontColor=light-dark(#000000,#000000);fillColor=light-dark(#FFFFFF,#FFFFFF);strokeColor=light-dark(#000000,#000000);" parent="1" vertex="1">
          <mxGeometry x="660" y="270" width="50" height="50" as="geometry" />
        </mxCell>
        <mxCell id="yJMHFVBEqxYaOZIvd9aB-1" value="" style="endArrow=none;html=1;rounded=0;exitX=0;exitY=1;exitDx=0;exitDy=0;entryX=0.75;entryY=0;entryDx=0;entryDy=0;labelBackgroundColor=none;fontColor=light-dark(#000000,#000000);" edge="1" parent="1" source="yJMHFVBEqxYaOZIvd9aB-91" target="7_lOte273rxT4vuSb5Ie-2">
          <mxGeometry width="50" height="50" relative="1" as="geometry">
            <mxPoint x="730" y="105" as="sourcePoint" />
            <mxPoint x="620" y="165" as="targetPoint" />
          </mxGeometry>
        </mxCell>
        <mxCell id="yJMHFVBEqxYaOZIvd9aB-5" value="" style="endArrow=none;html=1;rounded=0;exitX=0.5;exitY=0;exitDx=0;exitDy=0;entryX=0.5;entryY=1;entryDx=0;entryDy=0;labelBackgroundColor=none;fontColor=light-dark(#000000,#000000);" edge="1" parent="1" source="yJMHFVBEqxYaOZIvd9aB-6" target="7_lOte273rxT4vuSb5Ie-3">
          <mxGeometry width="50" height="50" relative="1" as="geometry">
            <mxPoint x="390" y="700" as="sourcePoint" />
            <mxPoint x="280" y="495" as="targetPoint" />
          </mxGeometry>
        </mxCell>
        <mxCell id="yJMHFVBEqxYaOZIvd9aB-6" value="Nombre" style="ellipse;whiteSpace=wrap;html=1;aspect=fixed;labelBackgroundColor=none;fontColor=light-dark(#000000,#000000);strokeColor=light-dark(#000000,#000000);fillColor=light-dark(#FFFFFF,#FFFFFF);" vertex="1" parent="1">
          <mxGeometry x="325" y="350" width="50" height="50" as="geometry" />
        </mxCell>
        <mxCell id="yJMHFVBEqxYaOZIvd9aB-7" value="" style="endArrow=none;html=1;rounded=0;exitX=0.5;exitY=0;exitDx=0;exitDy=0;entryX=0.25;entryY=1;entryDx=0;entryDy=0;labelBackgroundColor=none;fontColor=light-dark(#000000,#000000);" edge="1" parent="1" source="yJMHFVBEqxYaOZIvd9aB-8" target="7_lOte273rxT4vuSb5Ie-3">
          <mxGeometry width="50" height="50" relative="1" as="geometry">
            <mxPoint x="320" y="700" as="sourcePoint" />
            <mxPoint x="210" y="495" as="targetPoint" />
          </mxGeometry>
        </mxCell>
        <mxCell id="yJMHFVBEqxYaOZIvd9aB-8" value="ID" style="ellipse;whiteSpace=wrap;html=1;aspect=fixed;labelBackgroundColor=none;fontColor=light-dark(#000000,#000000);strokeColor=light-dark(#000000,#000000);fillColor=light-dark(#FFFFFF,#7B7B7B);" vertex="1" parent="1">
          <mxGeometry x="270" y="380" width="50" height="50" as="geometry" />
        </mxCell>
        <mxCell id="yJMHFVBEqxYaOZIvd9aB-9" value="" style="endArrow=none;html=1;rounded=0;exitX=0;exitY=0.5;exitDx=0;exitDy=0;entryX=1;entryY=0.5;entryDx=0;entryDy=0;labelBackgroundColor=none;fontColor=light-dark(#000000,#000000);" edge="1" parent="1" source="7_lOte273rxT4vuSb5Ie-3" target="yJMHFVBEqxYaOZIvd9aB-10">
          <mxGeometry width="50" height="50" relative="1" as="geometry">
            <mxPoint x="320" y="860" as="sourcePoint" />
            <mxPoint x="240" y="360" as="targetPoint" />
          </mxGeometry>
        </mxCell>
        <mxCell id="yJMHFVBEqxYaOZIvd9aB-10" value="TelÃ©fono" style="ellipse;whiteSpace=wrap;html=1;aspect=fixed;labelBackgroundColor=none;fontColor=light-dark(#000000,#000000);strokeColor=light-dark(#000000,#000000);fillColor=light-dark(#FFFFFF,#FFFFFF);" vertex="1" parent="1">
          <mxGeometry x="220" y="260" width="50" height="50" as="geometry" />
        </mxCell>
        <mxCell id="yJMHFVBEqxYaOZIvd9aB-11" value="" style="endArrow=none;html=1;rounded=0;entryX=0.75;entryY=1;entryDx=0;entryDy=0;exitX=0.5;exitY=0;exitDx=0;exitDy=0;labelBackgroundColor=none;fontColor=light-dark(#000000,#000000);" edge="1" parent="1" source="yJMHFVBEqxYaOZIvd9aB-12" target="7_lOte273rxT4vuSb5Ie-3">
          <mxGeometry width="50" height="50" relative="1" as="geometry">
            <mxPoint x="400" y="500" as="sourcePoint" />
            <mxPoint x="390" y="585" as="targetPoint" />
          </mxGeometry>
        </mxCell>
        <mxCell id="yJMHFVBEqxYaOZIvd9aB-12" value="Fax" style="ellipse;whiteSpace=wrap;html=1;aspect=fixed;labelBackgroundColor=none;fontColor=light-dark(#000000,#000000);strokeColor=light-dark(#000000,#000000);fillColor=light-dark(#FFFFFF,#FFFFFF);" vertex="1" parent="1">
          <mxGeometry x="380" y="380" width="50" height="50" as="geometry" />
        </mxCell>
        <mxCell id="yJMHFVBEqxYaOZIvd9aB-13" value="" style="endArrow=none;html=1;rounded=0;exitX=0;exitY=0.5;exitDx=0;exitDy=0;entryX=1;entryY=0.5;entryDx=0;entryDy=0;labelBackgroundColor=none;fontColor=light-dark(#000000,#000000);" edge="1" parent="1" source="yJMHFVBEqxYaOZIvd9aB-14" target="7_lOte273rxT4vuSb5Ie-3">
          <mxGeometry width="50" height="50" relative="1" as="geometry">
            <mxPoint x="560" y="610" as="sourcePoint" />
            <mxPoint x="450" y="405" as="targetPoint" />
          </mxGeometry>
        </mxCell>
        <mxCell id="yJMHFVBEqxYaOZIvd9aB-14" value="Postal" style="ellipse;whiteSpace=wrap;html=1;aspect=fixed;labelBackgroundColor=none;fontColor=light-dark(#000000,#000000);strokeColor=light-dark(#000000,#000000);fillColor=light-dark(#FFFFFF,#FFFFFF);" vertex="1" parent="1">
          <mxGeometry x="440" y="340" width="50" height="50" as="geometry" />
        </mxCell>
        <mxCell id="yJMHFVBEqxYaOZIvd9aB-15" value="" style="endArrow=none;html=1;rounded=0;exitX=0.5;exitY=1;exitDx=0;exitDy=0;entryX=0;entryY=1;entryDx=0;entryDy=0;labelBackgroundColor=none;fontColor=light-dark(#000000,#000000);" edge="1" parent="1" source="yJMHFVBEqxYaOZIvd9aB-16" target="7_lOte273rxT4vuSb5Ie-3">
          <mxGeometry width="50" height="50" relative="1" as="geometry">
            <mxPoint x="500" y="490" as="sourcePoint" />
            <mxPoint x="390" y="285" as="targetPoint" />
          </mxGeometry>
        </mxCell>
        <mxCell id="yJMHFVBEqxYaOZIvd9aB-16" value="Contacto" style="ellipse;whiteSpace=wrap;html=1;aspect=fixed;labelBackgroundColor=none;fontColor=light-dark(#000000,#000000);strokeColor=light-dark(#000000,#000000);fillColor=light-dark(#FFFFFF,#FFFFFF);" vertex="1" parent="1">
          <mxGeometry x="220" y="330" width="50" height="50" as="geometry" />
        </mxCell>
        <mxCell id="yJMHFVBEqxYaOZIvd9aB-17" value="" style="endArrow=none;html=1;rounded=0;exitX=1;exitY=0.5;exitDx=0;exitDy=0;entryX=0;entryY=0.5;entryDx=0;entryDy=0;labelBackgroundColor=none;fontColor=light-dark(#000000,#000000);" edge="1" parent="1" source="yJMHFVBEqxYaOZIvd9aB-18" target="7_lOte273rxT4vuSb5Ie-1">
          <mxGeometry width="50" height="50" relative="1" as="geometry">
            <mxPoint x="580" y="230" as="sourcePoint" />
            <mxPoint x="470" y="25" as="targetPoint" />
          </mxGeometry>
        </mxCell>
        <mxCell id="yJMHFVBEqxYaOZIvd9aB-18" value="Nombre" style="ellipse;whiteSpace=wrap;html=1;aspect=fixed;labelBackgroundColor=none;fontColor=light-dark(#000000,#000000);fillColor=light-dark(#FFFFFF,#FFFFFF);strokeColor=light-dark(#000000,#000000);" vertex="1" parent="1">
          <mxGeometry x="310" y="73" width="50" height="50" as="geometry" />
        </mxCell>
        <mxCell id="yJMHFVBEqxYaOZIvd9aB-21" value="" style="endArrow=none;html=1;rounded=0;exitX=0.5;exitY=1;exitDx=0;exitDy=0;entryX=0.5;entryY=0;entryDx=0;entryDy=0;labelBackgroundColor=none;fontColor=light-dark(#000000,#000000);" edge="1" parent="1" source="yJMHFVBEqxYaOZIvd9aB-22" target="7_lOte273rxT4vuSb5Ie-1">
          <mxGeometry width="50" height="50" relative="1" as="geometry">
            <mxPoint x="580" y="230" as="sourcePoint" />
            <mxPoint x="470" y="25" as="targetPoint" />
          </mxGeometry>
        </mxCell>
        <mxCell id="yJMHFVBEqxYaOZIvd9aB-22" value="ID" style="ellipse;whiteSpace=wrap;html=1;aspect=fixed;labelBackgroundColor=none;fontColor=light-dark(#000000,#000000);fillColor=light-dark(#FFFFFF,#7B7B7B);strokeColor=light-dark(#000000,#000000);" vertex="1" parent="1">
          <mxGeometry x="445" width="50" height="50" as="geometry" />
        </mxCell>
        <mxCell id="yJMHFVBEqxYaOZIvd9aB-23" value="Cliente" style="rounded=0;whiteSpace=wrap;html=1;labelBackgroundColor=none;fontColor=light-dark(#000000,#000000);fillColor=light-dark(#FFFFFF,#FFFFFF);strokeColor=light-dark(#000000,#000000);" vertex="1" parent="1">
          <mxGeometry x="360" y="520" width="120" height="60" as="geometry" />
        </mxCell>
        <mxCell id="yJMHFVBEqxYaOZIvd9aB-24" value="" style="endArrow=none;html=1;rounded=0;exitX=1;exitY=0;exitDx=0;exitDy=0;entryX=0;entryY=0.75;entryDx=0;entryDy=0;labelBackgroundColor=none;fontColor=light-dark(#000000,#000000);" edge="1" parent="1" source="yJMHFVBEqxYaOZIvd9aB-25" target="yJMHFVBEqxYaOZIvd9aB-23">
          <mxGeometry width="50" height="50" relative="1" as="geometry">
            <mxPoint x="610" y="540" as="sourcePoint" />
            <mxPoint x="650" y="540" as="targetPoint" />
          </mxGeometry>
        </mxCell>
        <mxCell id="yJMHFVBEqxYaOZIvd9aB-25" value="Nombre" style="ellipse;whiteSpace=wrap;html=1;aspect=fixed;labelBackgroundColor=none;fontColor=light-dark(#000000,#000000);strokeColor=light-dark(#000000,#000000);fillColor=light-dark(#FFFFFF,#FFFFFF);" vertex="1" parent="1">
          <mxGeometry x="290" y="580" width="50" height="50" as="geometry" />
        </mxCell>
        <mxCell id="yJMHFVBEqxYaOZIvd9aB-28" value="" style="endArrow=none;html=1;rounded=0;entryX=0;entryY=0.25;entryDx=0;entryDy=0;labelBackgroundColor=none;fontColor=light-dark(#000000,#000000);" edge="1" parent="1" target="yJMHFVBEqxYaOZIvd9aB-23">
          <mxGeometry width="50" height="50" relative="1" as="geometry">
            <mxPoint x="330" y="550" as="sourcePoint" />
            <mxPoint x="560" y="510" as="targetPoint" />
          </mxGeometry>
        </mxCell>
        <mxCell id="yJMHFVBEqxYaOZIvd9aB-29" value="ID" style="ellipse;whiteSpace=wrap;html=1;aspect=fixed;labelBackgroundColor=none;fontColor=light-dark(#000000,#000000);strokeColor=light-dark(#000000,#000000);fillColor=light-dark(#FFFFFF,#7B7B7B);" vertex="1" parent="1">
          <mxGeometry x="280" y="525" width="50" height="50" as="geometry" />
        </mxCell>
        <mxCell id="yJMHFVBEqxYaOZIvd9aB-30" value="" style="endArrow=none;html=1;rounded=0;exitX=0;exitY=0;exitDx=0;exitDy=0;entryX=0.75;entryY=1;entryDx=0;entryDy=0;labelBackgroundColor=none;fontColor=light-dark(#000000,#000000);" edge="1" parent="1" source="yJMHFVBEqxYaOZIvd9aB-31" target="yJMHFVBEqxYaOZIvd9aB-23">
          <mxGeometry width="50" height="50" relative="1" as="geometry">
            <mxPoint x="780" y="670" as="sourcePoint" />
            <mxPoint x="780" y="610" as="targetPoint" />
          </mxGeometry>
        </mxCell>
        <mxCell id="yJMHFVBEqxYaOZIvd9aB-31" value="CrÃ©dito" style="ellipse;whiteSpace=wrap;html=1;aspect=fixed;labelBackgroundColor=none;fontColor=light-dark(#000000,#000000);strokeColor=light-dark(#000000,#000000);fillColor=light-dark(#FFFFFF,#99FF99);" vertex="1" parent="1">
          <mxGeometry x="454" y="610" width="50" height="50" as="geometry" />
        </mxCell>
        <mxCell id="yJMHFVBEqxYaOZIvd9aB-32" value="" style="endArrow=none;html=1;rounded=0;exitX=0.5;exitY=0;exitDx=0;exitDy=0;entryX=0.5;entryY=1;entryDx=0;entryDy=0;labelBackgroundColor=none;fontColor=light-dark(#000000,#000000);" edge="1" parent="1" source="yJMHFVBEqxYaOZIvd9aB-33" target="yJMHFVBEqxYaOZIvd9aB-23">
          <mxGeometry width="50" height="50" relative="1" as="geometry">
            <mxPoint x="780" y="670" as="sourcePoint" />
            <mxPoint x="720" y="610" as="targetPoint" />
          </mxGeometry>
        </mxCell>
        <mxCell id="yJMHFVBEqxYaOZIvd9aB-33" value="Email" style="ellipse;whiteSpace=wrap;html=1;aspect=fixed;labelBackgroundColor=none;fontColor=light-dark(#000000,#000000);strokeColor=light-dark(#000000,#000000);fillColor=light-dark(#FFFFFF,#FFFFFF);" vertex="1" parent="1">
          <mxGeometry x="395" y="610" width="50" height="50" as="geometry" />
        </mxCell>
        <mxCell id="yJMHFVBEqxYaOZIvd9aB-34" value="" style="endArrow=none;html=1;rounded=0;exitX=0.5;exitY=0;exitDx=0;exitDy=0;entryX=0.25;entryY=1;entryDx=0;entryDy=0;labelBackgroundColor=none;fontColor=light-dark(#000000,#000000);" edge="1" parent="1" source="yJMHFVBEqxYaOZIvd9aB-35" target="yJMHFVBEqxYaOZIvd9aB-23">
          <mxGeometry width="50" height="50" relative="1" as="geometry">
            <mxPoint x="630" y="710" as="sourcePoint" />
            <mxPoint x="630" y="650" as="targetPoint" />
          </mxGeometry>
        </mxCell>
        <mxCell id="yJMHFVBEqxYaOZIvd9aB-35" value="TelÃ©fono" style="ellipse;whiteSpace=wrap;html=1;aspect=fixed;labelBackgroundColor=none;fontColor=light-dark(#000000,#000000);strokeColor=light-dark(#000000,#000000);fillColor=light-dark(#FFFFFF,#FFFFFF);" vertex="1" parent="1">
          <mxGeometry x="340" y="610" width="50" height="50" as="geometry" />
        </mxCell>
        <mxCell id="yJMHFVBEqxYaOZIvd9aB-36" value="" style="endArrow=none;html=1;rounded=0;exitX=0;exitY=0;exitDx=0;exitDy=0;entryX=1;entryY=0.75;entryDx=0;entryDy=0;labelBackgroundColor=none;fontColor=light-dark(#000000,#000000);" edge="1" parent="1" source="yJMHFVBEqxYaOZIvd9aB-37" target="yJMHFVBEqxYaOZIvd9aB-23">
          <mxGeometry width="50" height="50" relative="1" as="geometry">
            <mxPoint x="780" y="620" as="sourcePoint" />
            <mxPoint x="610" y="425" as="targetPoint" />
          </mxGeometry>
        </mxCell>
        <mxCell id="yJMHFVBEqxYaOZIvd9aB-37" value="Banco" style="ellipse;whiteSpace=wrap;html=1;aspect=fixed;labelBackgroundColor=none;fontColor=light-dark(#000000,#000000);fillColor=light-dark(#FFFFFF,#FFFFFF);strokeColor=light-dark(#000000,#000000);" vertex="1" parent="1">
          <mxGeometry x="510" y="600" width="50" height="50" as="geometry" />
        </mxCell>
        <mxCell id="yJMHFVBEqxYaOZIvd9aB-38" value="" style="endArrow=none;html=1;rounded=0;exitX=0;exitY=0;exitDx=0;exitDy=0;entryX=1;entryY=0.25;entryDx=0;entryDy=0;labelBackgroundColor=none;fontColor=light-dark(#000000,#000000);" edge="1" parent="1" source="yJMHFVBEqxYaOZIvd9aB-39" target="yJMHFVBEqxYaOZIvd9aB-23">
          <mxGeometry width="50" height="50" relative="1" as="geometry">
            <mxPoint x="800" y="510" as="sourcePoint" />
            <mxPoint x="690" y="305" as="targetPoint" />
          </mxGeometry>
        </mxCell>
        <mxCell id="yJMHFVBEqxYaOZIvd9aB-39" value="IBAN" style="ellipse;whiteSpace=wrap;html=1;aspect=fixed;labelBackgroundColor=none;fontColor=light-dark(#000000,#000000);strokeColor=light-dark(#000000,#000000);fillColor=light-dark(#FFFFFF,#FFFFFF);" vertex="1" parent="1">
          <mxGeometry x="510" y="540" width="50" height="50" as="geometry" />
        </mxCell>
        <mxCell id="yJMHFVBEqxYaOZIvd9aB-40" value="Venta" style="rounded=0;whiteSpace=wrap;html=1;labelBackgroundColor=none;fontColor=light-dark(#000000,#000000);fillColor=light-dark(#FFFFFF,#FFFFFF);strokeColor=light-dark(#000000,#000000);" vertex="1" parent="1">
          <mxGeometry x="540" y="360" width="120" height="60" as="geometry" />
        </mxCell>
        <mxCell id="yJMHFVBEqxYaOZIvd9aB-41" value="" style="endArrow=none;html=1;rounded=0;exitX=0.5;exitY=0;exitDx=0;exitDy=0;entryX=0.25;entryY=1;entryDx=0;entryDy=0;labelBackgroundColor=none;fontColor=light-dark(#000000,#000000);" edge="1" parent="1" source="yJMHFVBEqxYaOZIvd9aB-42" target="yJMHFVBEqxYaOZIvd9aB-40">
          <mxGeometry width="50" height="50" relative="1" as="geometry">
            <mxPoint x="690" y="960" as="sourcePoint" />
            <mxPoint x="690" y="750" as="targetPoint" />
          </mxGeometry>
        </mxCell>
        <mxCell id="yJMHFVBEqxYaOZIvd9aB-42" value="ID" style="ellipse;whiteSpace=wrap;html=1;aspect=fixed;labelBackgroundColor=none;fontColor=light-dark(#000000,#000000);strokeColor=light-dark(#000000,#000000);fillColor=light-dark(#FFFFFF,#7B7B7B);" vertex="1" parent="1">
          <mxGeometry x="520" y="460" width="50" height="50" as="geometry" />
        </mxCell>
        <mxCell id="yJMHFVBEqxYaOZIvd9aB-43" value="" style="endArrow=none;html=1;rounded=0;exitX=0.5;exitY=0;exitDx=0;exitDy=0;entryX=0.5;entryY=1;entryDx=0;entryDy=0;labelBackgroundColor=none;fontColor=light-dark(#000000,#000000);" edge="1" parent="1" source="yJMHFVBEqxYaOZIvd9aB-44" target="yJMHFVBEqxYaOZIvd9aB-40">
          <mxGeometry width="50" height="50" relative="1" as="geometry">
            <mxPoint x="800" y="1020" as="sourcePoint" />
            <mxPoint x="800" y="810" as="targetPoint" />
          </mxGeometry>
        </mxCell>
        <mxCell id="yJMHFVBEqxYaOZIvd9aB-44" value="ID Cliente" style="ellipse;whiteSpace=wrap;html=1;aspect=fixed;labelBackgroundColor=none;fontColor=light-dark(#000000,#000000);strokeColor=light-dark(#000000,#000000);fillColor=light-dark(#FFFFFF,#FFFFFF);" vertex="1" parent="1">
          <mxGeometry x="570" y="490" width="50" height="50" as="geometry" />
        </mxCell>
        <mxCell id="yJMHFVBEqxYaOZIvd9aB-45" value="" style="endArrow=none;html=1;rounded=0;exitX=0.5;exitY=0;exitDx=0;exitDy=0;entryX=0.75;entryY=1;entryDx=0;entryDy=0;labelBackgroundColor=none;fontColor=light-dark(#000000,#000000);" edge="1" parent="1" source="yJMHFVBEqxYaOZIvd9aB-46" target="yJMHFVBEqxYaOZIvd9aB-40">
          <mxGeometry width="50" height="50" relative="1" as="geometry">
            <mxPoint x="740" y="980" as="sourcePoint" />
            <mxPoint x="740" y="770" as="targetPoint" />
          </mxGeometry>
        </mxCell>
        <mxCell id="yJMHFVBEqxYaOZIvd9aB-46" value="Fecha compra" style="ellipse;whiteSpace=wrap;html=1;aspect=fixed;labelBackgroundColor=none;fontColor=light-dark(#000000,#000000);strokeColor=light-dark(#000000,#000000);fillColor=light-dark(#FFFFFF,#FFFFFF);" vertex="1" parent="1">
          <mxGeometry x="620" y="470" width="50" height="50" as="geometry" />
        </mxCell>
        <mxCell id="yJMHFVBEqxYaOZIvd9aB-47" value="" style="endArrow=none;html=1;rounded=0;exitX=0;exitY=0;exitDx=0;exitDy=0;entryX=1;entryY=1;entryDx=0;entryDy=0;labelBackgroundColor=none;fontColor=light-dark(#000000,#000000);" edge="1" parent="1" source="yJMHFVBEqxYaOZIvd9aB-92" target="yJMHFVBEqxYaOZIvd9aB-40">
          <mxGeometry width="50" height="50" relative="1" as="geometry">
            <mxPoint x="725" y="740" as="sourcePoint" />
            <mxPoint x="820" y="940" as="targetPoint" />
          </mxGeometry>
        </mxCell>
        <mxCell id="yJMHFVBEqxYaOZIvd9aB-68" value="suministra" style="rhombus;whiteSpace=wrap;html=1;labelBackgroundColor=none;fontColor=light-dark(#000000,#000000);fillColor=light-dark(#FFFFFF,#FFFFFF);strokeColor=light-dark(#000000,#000000);" vertex="1" parent="1">
          <mxGeometry x="330" y="128" width="80" height="80" as="geometry" />
        </mxCell>
        <mxCell id="yJMHFVBEqxYaOZIvd9aB-69" value="" style="endArrow=none;html=1;rounded=0;entryX=0.5;entryY=1;entryDx=0;entryDy=0;exitX=0.5;exitY=0;exitDx=0;exitDy=0;labelBackgroundColor=none;fontColor=light-dark(#000000,#000000);" edge="1" parent="1" source="7_lOte273rxT4vuSb5Ie-3" target="yJMHFVBEqxYaOZIvd9aB-68">
          <mxGeometry width="50" height="50" relative="1" as="geometry">
            <mxPoint x="510" y="370" as="sourcePoint" />
            <mxPoint x="560" y="320" as="targetPoint" />
          </mxGeometry>
        </mxCell>
        <mxCell id="yJMHFVBEqxYaOZIvd9aB-72" value="0:1" style="edgeLabel;html=1;align=center;verticalAlign=middle;resizable=0;points=[];labelBackgroundColor=none;fontColor=light-dark(#000000,#FFFFFF);fontStyle=0" vertex="1" connectable="0" parent="yJMHFVBEqxYaOZIvd9aB-69">
          <mxGeometry x="-0.3966" y="2" relative="1" as="geometry">
            <mxPoint x="-17" y="2" as="offset" />
          </mxGeometry>
        </mxCell>
        <mxCell id="yJMHFVBEqxYaOZIvd9aB-70" value="" style="endArrow=none;html=1;rounded=0;exitX=1;exitY=0.5;exitDx=0;exitDy=0;entryX=0;entryY=0.5;entryDx=0;entryDy=0;labelBackgroundColor=none;fontColor=light-dark(#000000,#000000);" edge="1" parent="1" source="yJMHFVBEqxYaOZIvd9aB-68" target="7_lOte273rxT4vuSb5Ie-2">
          <mxGeometry width="50" height="50" relative="1" as="geometry">
            <mxPoint x="510" y="370" as="sourcePoint" />
            <mxPoint x="560" y="320" as="targetPoint" />
          </mxGeometry>
        </mxCell>
        <mxCell id="yJMHFVBEqxYaOZIvd9aB-71" value="1:n" style="edgeLabel;html=1;align=center;verticalAlign=middle;resizable=0;points=[];labelBackgroundColor=none;fontColor=light-dark(#000000,#FFFFFF);" vertex="1" connectable="0" parent="yJMHFVBEqxYaOZIvd9aB-70">
          <mxGeometry x="0.6359" y="4" relative="1" as="geometry">
            <mxPoint x="8" y="-12" as="offset" />
          </mxGeometry>
        </mxCell>
        <mxCell id="yJMHFVBEqxYaOZIvd9aB-73" value="" style="endArrow=none;html=1;rounded=0;exitX=1;exitY=0.5;exitDx=0;exitDy=0;entryX=0;entryY=0.5;entryDx=0;entryDy=0;labelBackgroundColor=none;fontColor=light-dark(#000000,#000000);" edge="1" parent="1" source="7_lOte273rxT4vuSb5Ie-1" target="yJMHFVBEqxYaOZIvd9aB-75">
          <mxGeometry width="50" height="50" relative="1" as="geometry">
            <mxPoint x="470" y="240" as="sourcePoint" />
            <mxPoint x="490" y="100" as="targetPoint" />
          </mxGeometry>
        </mxCell>
        <mxCell id="yJMHFVBEqxYaOZIvd9aB-74" value="0:1" style="edgeLabel;html=1;align=center;verticalAlign=middle;resizable=0;points=[];labelBackgroundColor=none;fontColor=light-dark(#000000,#FFFFFF);" vertex="1" connectable="0" parent="yJMHFVBEqxYaOZIvd9aB-73">
          <mxGeometry x="0.6359" y="4" relative="1" as="geometry">
            <mxPoint x="70" y="-42" as="offset" />
          </mxGeometry>
        </mxCell>
        <mxCell id="yJMHFVBEqxYaOZIvd9aB-75" value="pertenece" style="rhombus;whiteSpace=wrap;html=1;labelBackgroundColor=none;fontColor=light-dark(#000000,#000000);fillColor=light-dark(#FFFFFF,#FFFFFF);strokeColor=light-dark(#000000,#000000);" vertex="1" parent="1">
          <mxGeometry x="570" y="30" width="80" height="80" as="geometry" />
        </mxCell>
        <mxCell id="yJMHFVBEqxYaOZIvd9aB-76" value="" style="endArrow=none;html=1;rounded=0;exitX=0.5;exitY=1;exitDx=0;exitDy=0;entryX=0.5;entryY=0;entryDx=0;entryDy=0;labelBackgroundColor=none;fontColor=light-dark(#000000,#000000);" edge="1" parent="1" source="yJMHFVBEqxYaOZIvd9aB-75" target="7_lOte273rxT4vuSb5Ie-2">
          <mxGeometry width="50" height="50" relative="1" as="geometry">
            <mxPoint x="510" y="270" as="sourcePoint" />
            <mxPoint x="560" y="220" as="targetPoint" />
          </mxGeometry>
        </mxCell>
        <mxCell id="yJMHFVBEqxYaOZIvd9aB-77" value="1:n" style="text;html=1;align=center;verticalAlign=middle;resizable=0;points=[];autosize=1;strokeColor=none;fillColor=none;labelBackgroundColor=none;fontColor=light-dark(#000000,#FFFFFF);" vertex="1" parent="1">
          <mxGeometry x="550" y="128" width="40" height="30" as="geometry" />
        </mxCell>
        <mxCell id="yJMHFVBEqxYaOZIvd9aB-78" value="realiza" style="rhombus;whiteSpace=wrap;html=1;labelBackgroundColor=none;fontColor=light-dark(#000000,#000000);fillColor=light-dark(#FFFFFF,#FFFFFF);strokeColor=light-dark(#000000,#000000);" vertex="1" parent="1">
          <mxGeometry x="439" y="410" width="80" height="80" as="geometry" />
        </mxCell>
        <mxCell id="yJMHFVBEqxYaOZIvd9aB-79" value="" style="endArrow=none;html=1;rounded=0;exitX=0;exitY=1;exitDx=0;exitDy=0;entryX=0.5;entryY=0;entryDx=0;entryDy=0;labelBackgroundColor=none;fontColor=light-dark(#000000,#000000);" edge="1" parent="1" source="yJMHFVBEqxYaOZIvd9aB-78" target="yJMHFVBEqxYaOZIvd9aB-23">
          <mxGeometry width="50" height="50" relative="1" as="geometry">
            <mxPoint x="460" y="240" as="sourcePoint" />
            <mxPoint x="610" y="210" as="targetPoint" />
          </mxGeometry>
        </mxCell>
        <mxCell id="yJMHFVBEqxYaOZIvd9aB-80" value="1:1" style="edgeLabel;html=1;align=center;verticalAlign=middle;resizable=0;points=[];labelBackgroundColor=none;fontColor=light-dark(#000000,#FFFFFF);" vertex="1" connectable="0" parent="yJMHFVBEqxYaOZIvd9aB-79">
          <mxGeometry x="0.6359" y="4" relative="1" as="geometry">
            <mxPoint x="-16" y="-4" as="offset" />
          </mxGeometry>
        </mxCell>
        <mxCell id="yJMHFVBEqxYaOZIvd9aB-81" value="" style="endArrow=none;html=1;rounded=0;exitX=1;exitY=0;exitDx=0;exitDy=0;entryX=0;entryY=0.5;entryDx=0;entryDy=0;labelBackgroundColor=none;fontColor=light-dark(#000000,#000000);" edge="1" parent="1" source="yJMHFVBEqxYaOZIvd9aB-78" target="yJMHFVBEqxYaOZIvd9aB-40">
          <mxGeometry width="50" height="50" relative="1" as="geometry">
            <mxPoint x="450" y="800" as="sourcePoint" />
            <mxPoint x="590" y="640" as="targetPoint" />
          </mxGeometry>
        </mxCell>
        <mxCell id="yJMHFVBEqxYaOZIvd9aB-82" value="0:n" style="edgeLabel;html=1;align=center;verticalAlign=middle;resizable=0;points=[];labelBackgroundColor=none;fontColor=light-dark(#000000,#FFFFFF);" vertex="1" connectable="0" parent="yJMHFVBEqxYaOZIvd9aB-81">
          <mxGeometry x="0.6359" y="4" relative="1" as="geometry">
            <mxPoint y="-14" as="offset" />
          </mxGeometry>
        </mxCell>
        <mxCell id="yJMHFVBEqxYaOZIvd9aB-91" value="Ud. vend." style="ellipse;whiteSpace=wrap;html=1;align=center;dashed=1;strokeColor=light-dark(#000000,#000000);fillColor=light-dark(#FFFFFF,#FFFFFF);fontColor=light-dark(#000000,#000000);" vertex="1" parent="1">
          <mxGeometry x="660" y="78" width="50" height="50" as="geometry" />
        </mxCell>
        <mxCell id="yJMHFVBEqxYaOZIvd9aB-92" value="Total" style="ellipse;whiteSpace=wrap;html=1;align=center;dashed=1;strokeColor=light-dark(#000000,#000000);fillColor=light-dark(#FFFFFF,#FFFFFF);fontColor=light-dark(#000000,#000000);" vertex="1" parent="1">
          <mxGeometry x="665" y="430" width="50" height="50" as="geometry" />
        </mxCell>
        <mxCell id="yJMHFVBEqxYaOZIvd9aB-96" value="" style="endArrow=none;html=1;rounded=0;exitX=1;exitY=0.5;exitDx=0;exitDy=0;labelBackgroundColor=none;fontColor=light-dark(#000000,#000000);entryX=0;entryY=1;entryDx=0;entryDy=0;" edge="1" parent="1" source="yJMHFVBEqxYaOZIvd9aB-40" target="yJMHFVBEqxYaOZIvd9aB-104">
          <mxGeometry width="50" height="50" relative="1" as="geometry">
            <mxPoint x="780" y="595" as="sourcePoint" />
            <mxPoint x="860" y="460" as="targetPoint" />
          </mxGeometry>
        </mxCell>
        <mxCell id="yJMHFVBEqxYaOZIvd9aB-99" value="0:n" style="edgeLabel;html=1;align=center;verticalAlign=middle;resizable=0;points=[];labelBackgroundColor=none;fontColor=light-dark(#000000,#FFFFFF);" vertex="1" connectable="0" parent="1">
          <mxGeometry x="690" y="390" as="geometry">
            <mxPoint x="-17" y="11" as="offset" />
          </mxGeometry>
        </mxCell>
        <mxCell id="yJMHFVBEqxYaOZIvd9aB-104" value="LÃ­nea venta" style="rhombus;whiteSpace=wrap;html=1;fillColor=light-dark(#FFFFFF,#FFFFFF);strokeColor=light-dark(#000000,#000000);fontColor=light-dark(#000000,#000000);" vertex="1" parent="1">
          <mxGeometry x="727" y="280" width="80" height="80" as="geometry" />
        </mxCell>
        <mxCell id="yJMHFVBEqxYaOZIvd9aB-105" value="" style="endArrow=none;html=1;rounded=0;exitX=0;exitY=0;exitDx=0;exitDy=0;labelBackgroundColor=none;fontColor=light-dark(#000000,#000000);entryX=1;entryY=1;entryDx=0;entryDy=0;" edge="1" parent="1" source="yJMHFVBEqxYaOZIvd9aB-104" target="7_lOte273rxT4vuSb5Ie-2">
          <mxGeometry width="50" height="50" relative="1" as="geometry">
            <mxPoint x="710" y="635" as="sourcePoint" />
            <mxPoint x="780" y="630" as="targetPoint" />
          </mxGeometry>
        </mxCell>
        <mxCell id="yJMHFVBEqxYaOZIvd9aB-108" value="1:n" style="edgeLabel;html=1;align=center;verticalAlign=middle;resizable=0;points=[];labelBackgroundColor=none;fontColor=light-dark(#000000,#FFFFFF);fontStyle=0" vertex="1" connectable="0" parent="1">
          <mxGeometry x="690" y="230" as="geometry">
            <mxPoint x="12" y="-3" as="offset" />
          </mxGeometry>
        </mxCell>
      </root>
    </mxGraphModel>
  </diagram>
</mxfile>
